<svg xmlns="http://www.w3.org/2000/svg" viewBox="0 0 445.688 342.405" id="people-holding-hands"><g data-name="Layer 2"><g data-name="Layer 1"><path fill="#fff4f2" d="M313.45011,27.19256C399.43223,68.661,474.2021,131.18179,421.615,240.21781S117.38149,361.3594,31.39937,319.891,57.65906,199.0834,110.24618,90.04737,227.468-14.27586,313.45011,27.19256Z"></path><path fill="#ffd1ca" d="M299.63009,125.28658c3.86071,0,3.86711-6,0-6-3.86071,0-3.86711,6,0,6Z"></path><path fill="#ffa574" d="M115.1622,48.07982c3.86072,0,3.86711-6,0-6-3.86071,0-3.8671,6,0,6Z"></path><path fill="#ffd1ca" d="M180.18419,32.74848c3.86072,0,3.86711-6,0-6-3.86071,0-3.86711,6,0,6Z"></path><path fill="#ffa574" d="M269.83205 38.26437c3.86072 0 3.86711-6 0-6-3.86071 0-3.8671 6 0 6zM32.17092 331.56658c3.86071 0 3.8671-6 0-6-3.86072 0-3.86711 6 0 6zM128.78558 272.7266c3.86071 0 3.86711-6 0-6-3.86071 0-3.86711 6 0 6zM36.04878 179.95086c3.86072 0 3.86711-6 0-6-3.86071 0-3.86711 6 0 6zM274.01623 212.49659c3.86071 0 3.86711-6 0-6-3.86072 0-3.86711 6 0 6zM411.15092 76.24331c3.86071 0 3.8671-6 0-6-3.86072 0-3.86711 6 0 6zM423.13092 322.92658c3.86071 0 3.8671-6 0-6-3.86072 0-3.86711 6 0 6zM431.82321 212.49659c3.86072 0 3.86711-6 0-6-3.86071 0-3.86711 6 0 6zM311.268 59.4154a1.5009 1.5009 0 000-3 1.5009 1.5009 0 000 3zM9.39092 239.70192a1.5009 1.5009 0 000-3 1.5009 1.5009 0 000 3zM300.33873 263.2266a1.5009 1.5009 0 000-3 1.5009 1.5009 0 000 3zM196.3252 329.23514a1.5009 1.5009 0 000-3 1.5009 1.5009 0 000 3zM229.8052 183.43514a1.5009 1.5009 0 000-3 1.5009 1.5009 0 000 3z"></path><path fill="#ffd1ca" d="M31.55137 285.31514a1.5009 1.5009 0 000-3 1.5009 1.5009 0 000 3zM168.268 221.24876a1.5009 1.5009 0 000-3 1.5009 1.5009 0 000 3zM141.75873 99.4154a1.5009 1.5009 0 000-3 1.5009 1.5009 0 000 3zM316.51329 187.81086a1.5009 1.5009 0 000-3 1.5009 1.5009 0 000 3zM426.06813 131.479a1.5009 1.5009 0 000-3 1.5009 1.5009 0 000 3zM400.49014 263.2266a1.5009 1.5009 0 000-3 1.5009 1.5009 0 000 3zM163.99334 301.05086a1.5009 1.5009 0 000-3 1.5009 1.5009 0 000 3z"></path><line x1="3.551" x2="435.551" y1="341.905" y2="341.905" fill="none" stroke="#020202" stroke-miterlimit="10"></line><path fill="#633322" d="M216.31419 52.00223v8.31029l-3.83105 1.84s.96 21 11.04 15.48 13.2-14.76 11.04-15.48l-3.36-2.08-.43328-7.66747zM174.3838 161.06108l-15.58931 16.2507a8.775 8.775 0 00-2.42782 6.5841l.72726 12.50566a2.173 2.173 0 00.951 1.67317h0a2.173 2.173 0 003.01771-.58094h0a5.11428 5.11428 0 00.86822-3.20732l-.63152-9.48359s6.38442-8.05729 5.66372-6.68824l-.26094 5.78454a1.58107 1.58107 0 002.19326 1.52831h0a1.56779 1.56779 0 00.74731-.63288 8.37034 8.37034 0 001.12908-3.4873l.16141-1.74239s7.97457-8.42493 9.251-14.57616zM277.15225 161.06108l15.58931 16.2507a8.775 8.775 0 012.42782 6.5841l-.72726 12.50566a2.173 2.173 0 01-.951 1.67317h0a2.173 2.173 0 01-3.01771-.58094h0a5.11428 5.11428 0 01-.86822-3.20732l.63152-9.48359s-6.38442-8.05729-5.66372-6.68824l.26094 5.78454a1.58107 1.58107 0 01-2.19326 1.52831h0a1.56779 1.56779 0 01-.74731-.63288 8.3705 8.3705 0 01-1.12909-3.4873l-.1614-1.74239s-7.97457-8.42493-9.251-14.57616z"></path><polygon fill="#34a853" points="196.163 151.433 196.163 316.553 218.243 316.553 221.123 172.553 226.883 172.553 237.923 316.553 260.003 316.553 250.403 151.433 196.163 151.433"></polygon><path fill="#4285f4" d="M252.32314,151.43252h-57.84l-.48-9.6-16.62023,31.60777L163.99334,171.047c10.8-61.0824,20.53489-78.90347,25.59006-92.7159a19.14117,19.14117,0,0,1,10.65379-11.101l12.24595-5.07759s10.32,24.48,22.08,0l12.246,5.07759a19.14113,19.14113,0,0,1,10.65378,11.101c5.05517,13.81243,18.5798,44.0061,28.21046,91.363l-16.29043,2.44723-16.33977-30.30876-.48,9.6h-57.84"></path><path fill="#2c66bf" d="M253.04311 91.43228c.20624 4.2002.30286 8.40039.38288 12.6001.08233 4.20019.07477 8.3999.11658 12.6001-.03913 4.20019-.03516 8.3999-.11481 12.60009l-.13953 6.29981c-.08307 2.1001-.13171 4.20019-.24512 6.30029-.11334-2.1001-.162-4.20019-.24505-6.30029l-.13953-6.29981c-.07965-4.20019-.07568-8.3999-.11481-12.60009.04181-4.2002.03425-8.39991.11658-12.6001C252.74032 99.83267 252.83694 95.63248 253.04311 91.43228zM194.48312 92.63248c.16626 4.10205.22284 8.20312.26288 12.30371.04229 4.10107-.00525 8.20068-.00348 12.30127-.07911 4.09961-.11512 8.1997-.23481 12.29883l-.19946 6.14843c-.10309 2.04932-.17175 4.09912-.30511 6.148-.09339-2.05127-.122-4.10156-.18512-6.15234l-.07947-6.15137c-.03967-4.10107.00433-8.20117.00519-12.30127.08178-4.09961.11425-8.19971.23657-12.29883C194.1003 100.82974 194.2369 96.73062 194.48312 92.63248z"></path><path fill="#633322" d="M237.92315,33.75257c0-11.86315-6.61926-15.93115-14.43963-15.93115s-13.88038,4.068-13.88038,15.93115l.00031.009c-.03082-.00061-.05939-.009-.09033-.009a4.71,4.71,0,0,0,0,9.41993,4.66175,4.66175,0,0,0,1.45849-.25379c2.26892,7.27161,7.13587,12.31385,12.79151,12.31385,5.64905,0,10.51105-5.03052,12.78345-12.28833a4.66,4.66,0,0,0,1.37658.22827,4.71,4.71,0,0,0,0-9.41993Z"></path><path fill="#2c66bf" d="M242.72314,322.31252s-6,16.8-.96,19.2h5.04s2.4-6.72,5.76,0h30.72s1.92-5.28-5.52-7.68-19.92-11.52-19.92-11.52Z"></path><polygon fill="#633322" points="241.763 316.553 242.723 322.313 257.843 322.313 257.843 316.553 241.763 316.553"></polygon><path fill="#2c66bf" d="M214.53005,322.31252s6,16.8.96,19.2h-5.04s-2.4-6.72-5.76,0H173.97s-1.92-5.28,5.52-7.68,19.92-11.52,19.92-11.52Z"></path><polygon fill="#633322" points="215.49 316.553 214.53 322.313 199.41 322.313 199.41 316.553 215.49 316.553"></polygon><path fill="#200100" d="M222.86764 34.87808c-.01776.74414-.09021 1.45508-.15668 2.15674a20.03223 20.03223 0 00-.12231 2.05029c-.00733.66114.11364 1.27832.467 1.42676a3.72325 3.72325 0 001.912-.23389 3.67418 3.67418 0 01-.87366.71241 1.84072 1.84072 0 01-1.23285.27685 1.48367 1.48367 0 01-1.066-.96045 3.668 3.668 0 01-.20581-1.21 7.53906 7.53906 0 01.35956-2.21484A7.65924 7.65924 0 01222.86764 34.87808zM225.48093 30.9186s3.99322-2.82463 7.242.8472M212.796 31.89836s3.02319-3.84509 7.18331-1.2508M217.90873 45.07982s3.28327 6.82276 9.32749.88547"></path><ellipse cx="217.408" cy="35.628" fill="#200100" rx="1.02" ry="1.53"></ellipse><ellipse cx="229.048" cy="35.208" fill="#200100" rx="1.02" ry="1.53"></ellipse><path fill="#200100" d="M206.54763 39.35806a2.03683 2.03683 0 01.2992-1.21093 2.13374 2.13374 0 01.99658-.89161 1.72137 1.72137 0 011.39477.01953 1.78924 1.78924 0 01.90949.88282c-.43469-.04541-.7826-.13086-1.10218-.12647a1.73785 1.73785 0 00-.82189.14844A8.09082 8.09082 0 00206.54763 39.35806zM241.14767 39.35806a8.09082 8.09082 0 00-1.676-1.17822 1.738 1.738 0 00-.822-.14844c-.31958-.00439-.66742.08106-1.10211.12647a1.78924 1.78924 0 01.90949-.88282 1.72137 1.72137 0 011.39477-.01953 2.13374 2.13374 0 01.99658.89161A2.03727 2.03727 0 01241.14767 39.35806zM216.80654 52.45279a13.69328 13.69328 0 006.61682 2.19385 10.28919 10.28919 0 003.4151-.4126 13.89254 13.89254 0 001.67035-.5752c.5553-.21875 1.07349-.52148 1.65174-.75146a13.38591 13.38591 0 01-1.41761 1.1831 9.10313 9.10313 0 01-1.64874.88086 8.44722 8.44722 0 01-3.71191.67383 9.08813 9.08813 0 01-3.65265-.92969A8.75153 8.75153 0 01216.80654 52.45279z"></path><path fill="#23893c" d="M228.87216,172.14127a21.49131,21.49131,0,0,1-4.89.49951,21.24632,21.24632,0,0,1-4.89008-.49951,21.27287,21.27287,0,0,1,4.89008-.49952A21.49132,21.49132,0,0,1,228.87216,172.14127Z"></path><path fill="#200100" d="M220.59243 21.66763a1.83055 1.83055 0 01-.54089-1.36425 6.52546 6.52546 0 00.16333-.73682 1.41734 1.41734 0 00-.19959-.69092 3.64953 3.64953 0 01-.43506-1.37744 2.922 2.922 0 01.30194-1.4707.06041.06041 0 01.0813-.02637.06232.06232 0 01.018.01416 2.92028 2.92028 0 01.657 1.34961 3.649 3.649 0 01-.07995 1.44238 1.417 1.417 0 00-.022.71875 6.47952 6.47952 0 00.34088.67334 1.83026 1.83026 0 01-.18573 1.45557.06143.06143 0 01-.084.02441A.06025.06025 0 01220.59243 21.66763zM216.38723 26.28775a1.83129 1.83129 0 01-.54089-1.36426 6.52441 6.52441 0 00.16327-.73681 1.41673 1.41673 0 00-.19953-.69092 3.6508 3.6508 0 01-.43506-1.37793 2.92129 2.92129 0 01.30194-1.47022.06039.06039 0 01.0813-.02636.05473.05473 0 01.01789.01416 2.92037 2.92037 0 01.6571 1.34961 3.649 3.649 0 01-.07995 1.44238 1.41683 1.41683 0 00-.022.71875 6.56639 6.56639 0 00.34088.67334 1.83 1.83 0 01-.18579 1.45556.06176.06176 0 01-.08392.02442A.06048.06048 0 01216.38723 26.28775zM212.19045 28.08951a1.83014 1.83014 0 01-.87848-1.1753 6.54706 6.54706 0 00-.03485-.7539 1.41842 1.41842 0 00-.37317-.61475 3.65045 3.65045 0 01-.77984-1.21631 2.92039 2.92039 0 01-.09271-1.498.06029.06029 0 01.09246-.03809 2.92007 2.92007 0 01.98688 1.13135 3.64619 3.64619 0 01.29968 1.41308 1.41848 1.41848 0 00.16663.69971 6.45907 6.45907 0 00.50488.56055 1.83141 1.83141 0 01.20105 1.4541.062.062 0 01-.0747.04541zM223.47323 20.57828a2.02136 2.02136 0 01-.2652-1.52442 7.17478 7.17478 0 00.30359-.7334 1.57823 1.57823 0 00-.06128-.75732 4.05753 4.05753 0 01-.15881-1.51709 3.21073 3.21073 0 01.58233-1.46777.0595.0595 0 01.08313-.0127.066.066 0 01.01667.01905 3.21193 3.21193 0 01.38208 1.53222 4.05877 4.05877 0 01-.35913 1.48291 1.57756 1.57756 0 00-.16144.74268 7.16432 7.16432 0 00.20337.7666 2.02082 2.02082 0 01-.46552 1.47559.06086.06086 0 01-.0852.01025A.07119.07119 0 01223.47323 20.57828zM217.35787 22.14615a2.40656 2.40656 0 01-.51495-1.61719 8.45129 8.45129 0 00.17786-.84766 1.90007 1.90007 0 00-.18634-.81494 4.88973 4.88973 0 01-.40876-1.62646 3.79709 3.79709 0 01.33106-1.69385.05778.05778 0 01.0769-.02783.0538.0538 0 01.02265.01855 3.79823 3.79823 0 01.63159 1.60645 4.88433 4.88433 0 01-.10816 1.67334 1.901 1.901 0 00-.03607.835 8.4728 8.4728 0 00.32819.80225 2.40494 2.40494 0 01-.21442 1.6831.0592.0592 0 01-.0791.02637A.06328.06328 0 01217.35787 22.14615zM219.49154 25.446a2.40455 2.40455 0 01-.51495-1.6167 8.47259 8.47259 0 00.17785-.84814 1.90215 1.90215 0 00-.18628-.81494 4.88411 4.88411 0 01-.40875-1.62647 3.79791 3.79791 0 01.331-1.69384.05783.05783 0 01.07691-.02784.05927.05927 0 01.0227.01905 3.79532 3.79532 0 01.6316 1.606 4.88312 4.88312 0 01-.10822 1.67334 1.9023 1.9023 0 00-.036.83545 8.51492 8.51492 0 00.32812.80176 2.40492 2.40492 0 01-.21435 1.68311.05884.05884 0 01-.07916.02636A.06367.06367 0 01219.49154 25.446zM221.57174 23.79752a2.40588 2.40588 0 01-.2489-1.67872 8.49241 8.49241 0 00.31164-.8081 1.90206 1.90206 0 00-.05322-.83447 4.886 4.886 0 01-.14252-1.6709 3.79634 3.79634 0 01.59852-1.61865.05756.05756 0 01.09973.00683 3.79674 3.79674 0 01.36572 1.68653 4.8883 4.8883 0 01-.37524 1.63476 1.89929 1.89929 0 00-.16956.81836 8.48109 8.48109 0 00.19519.84424 2.4054 2.4054 0 01-.48163 1.627.05894.05894 0 01-.08227.01319A.06247.06247 0 01221.57174 23.79752zM224.45229 25.02554a2.40467 2.40467 0 01-.2489-1.67822 8.49868 8.49868 0 00.31159-.80859 1.90238 1.90238 0 00-.05316-.83448 4.88574 4.88574 0 01-.14252-1.67089 3.79851 3.79851 0 01.59845-1.61866.05786.05786 0 01.08044-.01513.06064.06064 0 01.01935.022 3.80036 3.80036 0 01.36572 1.687 4.8838 4.8838 0 01-.3753 1.63428 1.90281 1.90281 0 00-.16956.81836 8.46757 8.46757 0 00.19525.84424 2.40625 2.40625 0 01-.48162 1.62744.05931.05931 0 01-.08228.01269A.057.057 0 01224.45229 25.02554zM214.3522 22.592a1.95454 1.95454 0 01-.24494-1.5 6.902 6.902 0 00.31317-.71436 1.51993 1.51993 0 00-.0512-.74365 3.91409 3.91409 0 01-.13868-1.49121 3.10865 3.10865 0 01.60169-1.43066.05965.05965 0 01.0838-.01075.06515.06515 0 01.01587.01856 3.11 3.11 0 01.36163 1.50928 3.914 3.914 0 01-.37866 1.44922 1.52025 1.52025 0 00-.17127.72558 6.95606 6.95606 0 00.19324.75586 1.95545 1.95545 0 01-.485 1.44043.06109.06109 0 01-.08594.00781A.05953.05953 0 01214.3522 22.592zM212.896 24.80142a1.65613 1.65613 0 01-.87073-1.084 5.94175 5.94175 0 00-.03448-.71631 1.26876 1.26876 0 00-.36988-.57031 3.27675 3.27675 0 01-.77294-1.12647 2.65569 2.65569 0 01-.0918-1.42285.06166.06166 0 01.07324-.04736.06019.06019 0 01.01849.00732 2.65506 2.65506 0 01.97809 1.03711 3.27459 3.27459 0 01.297 1.3335 1.27163 1.27163 0 00.1651.65966c.11743.19288.35467.3335.50049.51368a1.65572 1.65572 0 01.19916 1.376.0634.0634 0 01-.0766.0459zM214.87356 27.61636a1.65662 1.65662 0 01-.7309-1.1831 5.9387 5.9387 0 00.05377-.71485 1.27272 1.27272 0 00-.29693-.61181 3.27067 3.27067 0 01-.62866-1.21289 2.65526 2.65526 0 01.0838-1.42334.06134.06134 0 01.07843-.0376.05551.05551 0 01.01745.00928 2.65581 2.65581 0 01.84327 1.1499 3.27319 3.27319 0 01.13079 1.35986 1.27075 1.27075 0 00.08283.67481 5.98922 5.98922 0 00.43353.57129 1.65571 1.65571 0 01.02851 1.39013.063.063 0 01-.08161.03565zM226.352 20.52164a1.45841 1.45841 0 01-.36615-1.24512A5.27426 5.27426 0 00226.24 18.654a1.10556 1.10556 0 00-.11163-.62256 2.85018 2.85018 0 01-.25958-1.24511 2.35238 2.35238 0 01.48327-1.24463.06356.06356 0 01.08881-.01172l.01123.01172a2.35182 2.35182 0 01.48328 1.24463 2.84926 2.84926 0 01-.25953 1.24511 1.10522 1.10522 0 00-.11163.62256 5.27372 5.27372 0 00.254.62256 1.45838 1.45838 0 01-.36615 1.24512.06516.06516 0 01-.09149.0083zM226.352 26.29117a1.45841 1.45841 0 01-.36615-1.24512 5.27426 5.27426 0 00.25409-.62256 1.10556 1.10556 0 00-.11163-.62256 2.85015 2.85015 0 01-.25958-1.24511 2.35238 2.35238 0 01.48327-1.24463.06357.06357 0 01.08881-.01172l.01123.01172a2.35182 2.35182 0 01.48328 1.24463 2.84923 2.84923 0 01-.25953 1.24511 1.10522 1.10522 0 00-.11163.62256 5.27372 5.27372 0 00.254.62256 1.45838 1.45838 0 01-.36615 1.24512.06516.06516 0 01-.09149.0083zM233.137 23.14517a1.82976 1.82976 0 01.21356-1.45166 6.57811 6.57811 0 00.50976-.55664 1.41851 1.41851 0 00.17267-.69824 3.64831 3.64831 0 01.31183-1.41065 2.92176 2.92176 0 01.99658-1.12255.06034.06034 0 01.08362.01806.05839.05839 0 01.00855.021 2.92077 2.92077 0 01-.10559 1.49707 3.65168 3.65168 0 01-.79035 1.20947 1.41826 1.41826 0 00-.37848.61133 6.54254 6.54254 0 00-.04138.75391 1.82954 1.82954 0 01-.88861 1.16748.06124.06124 0 01-.08484-.02051zM234.50344 25.63492a2.02228 2.02228 0 01.53241-1.45313 7.2064 7.2064 0 00.6294-.48291 1.57927 1.57927 0 00.32556-.68652 4.05438 4.05438 0 01.621-1.39356 3.212 3.212 0 011.23816-.98.05916.05916 0 01.07818.03077.05986.05986 0 01.00489.0249 3.21344 3.21344 0 01-.43506 1.51806 4.058 4.058 0 01-1.05231 1.1045 1.5767 1.5767 0 00-.51105.5625 7.13756 7.13756 0 00-.20721.76562 2.02068 2.02068 0 01-1.14087 1.04541.06084.06084 0 01-.0788-.03418A.0592.0592 0 01234.50344 25.63492zM230.09652 21.94254a2.40453 2.40453 0 01.3623-1.65772 8.51885 8.51885 0 00.57795-.64551 1.901 1.901 0 00.246-.79883 4.88731 4.88731 0 01.45911-1.61328 3.795 3.795 0 011.13348-1.30127.05778.05778 0 01.09076.042 3.79547 3.79547 0 01-.256 1.70654 4.89322 4.89322 0 01-.9303 1.39551 1.89832 1.89832 0 00-.44873.70507 8.48345 8.48345 0 00-.1167.85889 2.40687 2.40687 0 01-1.02716 1.35059.059.059 0 01-.08154-.01709A.06105.06105 0 01230.09652 21.94254zM227.04092 21.7023a1.9541 1.9541 0 01.30035-1.48975 6.949 6.949 0 00.54529-.55761 1.52287 1.52287 0 00.21472-.71436 3.91249 3.91249 0 01.39679-1.44385 3.10817 3.10817 0 011.068-1.12646.05979.05979 0 01.08216.02.06241.06241 0 01.00824.02295 3.11124 3.11124 0 01-.19452 1.54 3.917 3.917 0 01-.86591 1.22168 1.524 1.524 0 00-.4165.61865 6.94455 6.94455 0 00-.08606.77539 1.95621 1.95621 0 01-.96222 1.17627.06114.06114 0 01-.08325-.023A.063.063 0 01227.04092 21.7023zM228.69479 24.98111a1.65543 1.65543 0 01-.21222-1.374 5.94417 5.94417 0 00.32818-.6377 1.26984 1.26984 0 00-.03509-.67871 3.27357 3.27357 0 01-.10626-1.3623 2.65312 2.65312 0 01.63177-1.27784.06131.06131 0 01.087-.00439.05576.05576 0 01.01233.01562 2.65472 2.65472 0 01.32861 1.38721 3.27007 3.27007 0 01-.40943 1.30322 1.2711 1.2711 0 00-.1867.65381 5.96187 5.96187 0 00.17657.69531 1.65541 1.65541 0 01-.51538 1.291.06263.06263 0 01-.08923.00146zM230.24325 25.59293a1.45777 1.45777 0 01.30524-1.26123 5.316 5.316 0 00.53125-.41211 1.10487 1.10487 0 00.21453-.59522 2.85159 2.85159 0 01.39759-1.208 2.35531 2.35531 0 011.041-.83642.06343.06343 0 01.08252.03467l.00409.01513a2.35377 2.35377 0 01-.2038 1.31983 2.8516 2.8516 0 01-.84722.94873 1.1054 1.1054 0 00-.40784.4834 5.25786 5.25786 0 00-.09119.666 1.45741 1.45741 0 01-.93951.895.06459.06459 0 01-.0835-.03809z"></path><circle cx="211.325" cy="25.96" r=".718" fill="#6e97ff"></circle><circle cx="212.043" cy="22.812" r=".718" fill="#6e97ff"></circle><circle cx="214.162" cy="25.242" r=".718" fill="#6e97ff"></circle><circle cx="214.642" cy="20.172" r=".718" fill="#6e97ff"></circle><circle cx="217.107" cy="19.332" r=".718" fill="#6e97ff"></circle><circle cx="216.089" cy="24.063" r=".718" fill="#6e97ff"></circle><circle cx="219.241" cy="22.596" r=".718" fill="#6e97ff"></circle><circle cx="220.287" cy="19.058" r=".718" fill="#6e97ff"></circle><circle cx="221.854" cy="21.305" r=".718" fill="#6e97ff"></circle><circle cx="223.718" cy="18.031" r=".718" fill="#6e97ff"></circle><circle cx="224.735" cy="22.321" r=".718" fill="#6e97ff"></circle><circle cx="226.402" cy="24.18" r=".718" fill="#6e97ff"></circle><circle cx="226.402" cy="18.34" r=".718" fill="#6e97ff"></circle><circle cx="228.026" cy="19.454" r=".718" fill="#6e97ff"></circle><circle cx="228.893" cy="22.596" r=".718" fill="#6e97ff"></circle><circle cx="231.263" cy="19.332" r=".718" fill="#6e97ff"></circle><circle cx="231.263" cy="23.757" r=".718" fill="#6e97ff"></circle><circle cx="233.901" cy="20.667" r=".718" fill="#6e97ff"></circle><circle cx="235.911" cy="23.757" r=".718" fill="#6e97ff"></circle><rect width="7.929" height="7.929" x="199.373" y="70.816" fill="#2c66bf" transform="rotate(45 203.338 74.78)"></rect><rect width="7.929" height="7.929" x="215.262" y="86.705" fill="#2c66bf" transform="rotate(45 219.227 90.67)"></rect><path fill="#2c66bf" d="M176.43649 137.13443l5.6065-5.60645-5.6065-5.60644-3.88746 3.88721c-.22351.90673-.44769 1.82519-.67327 2.76513zM186.87948 93.34341l-2.29584-2.29589c-.86285 2.21826-1.77765 4.64111-2.73822 7.32959z"></path><polygon fill="#2c66bf" points="183.412 161.975 180.184 158.747 174.578 164.354 179.548 169.323 183.412 161.975"></polygon><polygon fill="#2c66bf" points="244.954 149.444 239.348 143.838 233.741 149.444 235.729 151.433 242.966 151.433 244.954 149.444"></polygon><rect width="7.929" height="7.929" x="235.383" y="102.315" fill="#2c66bf" transform="rotate(45 239.348 106.279)"></rect><path fill="#2c66bf" d="M261.80068 89.5856l-5.25958 5.25928 5.60657 5.60644 2.75751-2.75732C263.80361 94.76187 262.761 92.05533 261.80068 89.5856zM278.2004 138.43033q-1.13067-4.1001-2.26983-7.95947l-.492-.4917-5.60651 5.60644 5.60651 5.60645z"></path><polygon fill="#2c66bf" points="268.048 169.666 273.361 164.354 267.754 158.747 264.121 162.381 268.048 169.666"></polygon><rect width="7.929" height="7.929" x="213.944" y="126.015" fill="#2c66bf" transform="rotate(45 217.909 129.979)"></rect><rect width="7.929" height="7.929" x="249.079" y="126.015" fill="#2c66bf" transform="rotate(45 253.043 129.979)"></rect><rect width="7.929" height="7.929" x="197.262" y="106.505" fill="#2c66bf" transform="rotate(45 201.227 110.47)"></rect><rect width="7.929" height="7.929" x="235.383" y="70.475" fill="#2c66bf" transform="rotate(45 239.348 74.44)"></rect><polygon fill="#2c66bf" points="197.731 151.433 208.944 151.433 203.338 145.826 197.731 151.433"></polygon><path fill="#eda606" d="M231.04856 58.17633l1.17065 1.62183a.06251.06251 0 01-.10131.07324l-.00208-.00317-.004-.0066zM233.19193 61.55426l.79456 1.84863a.15954.15954 0 01-.29315.126l-.00257-.00635-.00525-.01391-.699-1.86011-.00373-.01a.11275.11275 0 01.20911-.08423zM234.61832 65.31647l.477 1.95776a.25166.25166 0 11-.489.11914l-.00232-.01025-.00378-.01953-.38062-1.94312-.00305-.01587a.20573.20573 0 01.40179-.08813zM235.40958 69.26813l.17328 2.01392a.30842.30842 0 01-.61456.053l-.00055-.00732-.00128-.02246-.11365-1.97754-.0011-.01953a.27967.27967 0 01.55786-.04zM235.61869 73.30475l-.1015 2.022a.36527.36527 0 01-.72962-.03662l.00049-.00879.00214-.02661.15515-1.97.00183-.02319a.33648.33648 0 01.67151.04321zM235.27366 77.33966l-.39209 1.99317a.42194.42194 0 01-.828-.16285l.00208-.00976.00751-.03345.43451-1.9209.00659-.02881a.39324.39324 0 01.76941.1626zM234.31449 81.28742l-.73474 1.90283a.44041.44041 0 11-.82166-.31738l.00147-.00367.015-.03784.72339-1.82251.01416-.03564a.43085.43085 0 01.80237.31421zM232.662 85.01911l-1.12091 1.7229a.45883.45883 0 01-.76916-.50049l.00232-.00366.03168-.04761 1.07586-1.62036.02936-.04419a.44923.44923 0 01.75085.49341zM230.1923 88.31012a11.4399 11.4399 0 01-1.60211 1.33887.47838.47838 0 01-.54145-.78882l.00379-.00269a10.49253 10.49253 0 001.48016-1.21411.46895.46895 0 01.65961.66675zM226.73246 90.64288a8.04934 8.04934 0 01-2.06116.51392.4971.4971 0 11-.11053-.988l.00543-.00073a7.07058 7.07058 0 001.81354-.43457.48772.48772 0 01.35272.90942zM222.54447 91.087a8.25552 8.25552 0 01-2.02319-.63379.48389.48389 0 01.39923-.88159 7.27207 7.27207 0 001.78882.54248.49343.49343 0 01-.15961.97387zM218.7244 89.37262a11.99266 11.99266 0 01-1.54114-1.396.465.465 0 01.677-.63746 11.0519 11.0519 0 001.43188 1.2732.47443.47443 0 11-.56415.76294zM215.8884 86.36994l-1.07171-1.7461a.44519.44519 0 01.75653-.46948l.027.043 1.03234 1.647.02887.04614a.45483.45483 0 11-.77075.48316zM213.94163 82.77838l-.69648-1.91479a.42662.42662 0 01.80036-.29566l.01312.03492.68768 1.83667.0138.03662a.43623.43623 0 11-.81708.30591zM212.72166 78.8985l-.35828-1.99561a.38008.38008 0 01.746-.14575l.00592.02832.40308 1.927.00635.03a.40906.40906 0 11-.80079.16748zM212.15147 74.88825l-.07123-2.02222a.32292.32292 0 01.645-.03247l.00146.02246.126 1.97339.00158.02417a.35187.35187 0 11-.70233.04468zM212.14585 70.8443l.204-2.01269a.26575.26575 0 01.52948.04565l-.0014.019-.14362 1.97876-.00147.02027a.29463.29463 0 01-.5877-.04273zM212.70438 66.84137l.5127-1.95337a.18233.18233 0 01.35473.084l-.00311.0144-.41424 1.94385-.00367.01733a.2295.2295 0 01-.44891-.0957zM213.88529 62.98541l.8338-1.83227a.08877.08877 0 01.16327.06958l-.00329.0083-.73945 1.84936-.00463.01172a.1358.1358 0 11-.2522-.10083zM215.74149 59.42536l.5567-.77906-.50622.81079a.02991.02991 0 01-.05243-.0288z"></path><path fill="#200100" d="M79.13789,36.527s-12.08968,6.46577-13.2545,27.11634S58.95857,88.6139,54.15857,89.0939c0,0,15.40344,24.97451,27.347-9.12S83.25745,33.149,79.13789,36.527Z"></path><path fill="#f8b79b" d="M19.87422,168.13862l19.51544-37.68769a8.21991,8.21991,0,0,1,6.16546-4.47168,5.32137,5.32137,0,0,1,5.39943,2.36888,7.8626,7.8626,0,0,1-.34043,9.03776l-26.16035,35.582Z"></path><path fill="#f8b79b" d="M19.88537 168.06715L8.38674 178.68385A6.1631 6.1631 0 006.279 183.1391l-.26866 8.79406a1.52624 1.52624 0 00.56127 1.22966h0a1.52622 1.52622 0 002.14728-.21882h0a3.592 3.592 0 00.80679-2.18984l.14776-6.6739s4.96739-5.23991 4.37808-4.32694l-.54216 4.0306a1.11047 1.11047 0 001.43938 1.20554h0a1.10118 1.10118 0 00.56216-.3963 5.87882 5.87882 0 001.00669-2.3695l.22124-1.20892s7.61511-5.4265 8.89052-9.6505zM151.3587 168.13862l-19.51544-37.68769a8.21991 8.21991 0 00-6.16546-4.47168 5.32137 5.32137 0 00-5.39943 2.36888 7.86262 7.86262 0 00.34043 9.03776l26.16035 35.582z"></path><path fill="#f8b79b" d="M151.34755 168.06715l11.49863 10.6167a6.1631 6.1631 0 012.10779 4.45525l.26866 8.79406a1.52624 1.52624 0 01-.56127 1.22966h0a1.52622 1.52622 0 01-2.14728-.21882h0a3.592 3.592 0 01-.80679-2.18984l-.14776-6.6739s-4.96738-5.23991-4.37808-4.32694l.54216 4.0306a1.11047 1.11047 0 01-1.43938 1.20554h0a1.10118 1.10118 0 01-.56216-.3963 5.87882 5.87882 0 01-1.00669-2.3695l-.22124-1.20892s-7.61511-5.4265-8.89052-9.6505zM36.08336 312.37545L34.01886 324.405l-14.85328 10.98s17.46 6.3 26.28-3.06l-1.8-8.28 4.14-10.62z"></path><path fill="#df382b" d="M13.40558,341.505s19.62.36807,24.3-4.046v4.05348h8.64s2.7143-14.44976-1.88285-13.70864-20.96172,13.235-21.32943,4.64806l-6.41993,3.30449a6.09909,6.09909,0,0,0-3.30779,5.42287Z"></path><path fill="#f8b79b" d="M105.1078,312.37545l.0645,12.02955,14.85328,10.98s-17.46,6.3-26.28-3.06l1.8-8.28-2.14-10.62Z"></path><path fill="#df382b" d="M125.78558,341.505s-19.62.36807-24.3-4.046v4.05348h-8.64s-2.7143-14.44976,1.88285-13.70864,20.96172,13.235,21.32943,4.64806l6.41993,3.30449a6.09909,6.09909,0,0,1,3.30779,5.42287Z"></path><path fill="#fabb05" d="M71.30562,138.945,64.03038,151.97A86.24848,86.24848,0,0,0,54.07,181.001L33.47558,315.611l74.07-2.186,4.664-127.57568a75.72894,75.72894,0,0,0-6.30624-33.66191A52.699,52.699,0,0,0,97.70558,138.945Z"></path><rect width="11.737" height=".999" x="77.197" y="170.651" fill="#200100" transform="rotate(-4.542 83.064 171.158)"></rect><rect width="1" height="16.764" x="101.027" y="150" fill="#200100" transform="rotate(-16.861 101.527 158.382)"></rect><path fill="#f8b79b" d="M91.94557,55.185c-.01862,0-.03577.00586-.05432.00611-.55249-9.59534-6.80975-17.16614-14.46564-17.16614s-13.91321,7.5708-14.4657,17.16614c-.01855-.00025-.0357-.00611-.05432-.00611a4.70742,4.70742,0,0,0,0,9.36,3.77566,3.77566,0,0,0,1.33008-.26233c1.70227,4.7345,4.91541,8.39587,8.85242,9.973l-.01459.00171L73.2256,86.145l.72,8.7,11.94-1.14-.42-7.55994L84.22224,72.95193l-.03143.00366a17.521,17.521,0,0,0,6.42468-8.673,3.77544,3.77544,0,0,0,1.33008.26233,4.70742,4.70742,0,0,0,0-9.36Z"></path><path fill="#200100" d="M74.63113 74.76041c1.46087-.08252 2.82538-.07618 4.18274-.186.67675-.05127 1.34033-.14844 2.01019-.26074a19.4008 19.4008 0 002.02161-.5459 4.69962 4.69962 0 01-1.79163 1.2915 7.61219 7.61219 0 01-2.16022.51123 9.10569 9.10569 0 01-2.19165-.11523A6.63862 6.63862 0 0174.63113 74.76041zM76.3456 57.10513c-.01782.74414-.09027 1.45508-.15667 2.15723a20.01808 20.01808 0 00-.12238 2.0498c-.00732.66114.11371 1.27832.4671 1.42676a3.718 3.718 0 001.91193-.23388 3.67224 3.67224 0 01-.8736.7124 1.84367 1.84367 0 01-1.23291.27734 1.48558 1.48558 0 01-1.066-.96045 3.67415 3.67415 0 01-.20587-1.21 7.54431 7.54431 0 01.35956-2.21533A7.6693 7.6693 0 0176.3456 57.10513zM65.88339 53.634s3.0404-3.8315 7.18885-1.21858M79.13789 52.22458s3.60638-3.3043 7.29106-.07009M73.82779 67.13436s4.94917 5.73024 9.23558-1.578"></path><ellipse cx="70.886" cy="57.855" fill="#200100" rx="1.02" ry="1.53"></ellipse><ellipse cx="82.526" cy="57.435" fill="#200100" rx="1.02" ry="1.53"></ellipse><path fill="#200100" d="M60.0256 60.58511a2.03721 2.03721 0 01.29913-1.21093 2.13412 2.13412 0 01.99658-.89161 1.72135 1.72135 0 011.39478.01954 1.78917 1.78917 0 01.90948.88281c-.43463-.04541-.78253-.13086-1.10211-.12647a1.738 1.738 0 00-.822.14844A8.0888 8.0888 0 0060.0256 60.58511zM94.62557 60.58511a8.0888 8.0888 0 00-1.6759-1.17822 1.738 1.738 0 00-.822-.14844c-.31958-.00439-.66748.08106-1.10211.12647a1.78917 1.78917 0 01.90948-.88281 1.72135 1.72135 0 011.39478-.01954 2.13412 2.13412 0 01.99658.89161A2.03721 2.03721 0 0194.62557 60.58511zM63.88515 49.91107s4.78043-1.29684 5.98043-9.17146c0 0 .63991 9.63109 20.78 8.19824l.38005 8.49715s10.533-22.30627-16.39443-22.17c-2.58621.01308-8.23258 1.7489-10.39258 4.8689-4.25383 6.14443-3.72 13.50006.467 19.99479z"></path><path fill="#df382b" d="M119.06556,136.06484l15.36-3.35986L113.68439,98.20693a22.86247,22.86247,0,0,0-13.96655-10.4104,61.173,61.173,0,0,0-14.25226-1.65161s-5.04,13.91992-12.24,0L63.2909,89.49257a21.95522,21.95522,0,0,0-12.9903,11.74976l-16.28174,35.9563,16.24958,2.48095,12.29-20.30615L71.30561,138.945,64.0304,151.97011A86.245,86.245,0,0,0,54.07,181.00087l-6.92864,45.28727,63.55365.98986,1.51458-41.42874a75.7296,75.7296,0,0,0-6.30621-33.66186A52.69586,52.69586,0,0,0,97.70557,138.945l5.83142-20.03882Z"></path><path fill="#b7251d" d="M57.14559 108.465a33.12937 33.12937 0 013.15406 5.23193 32.76743 32.76743 0 012.25885 5.67627 32.752 32.752 0 01-3.15412-5.23193A33.14928 33.14928 0 0157.14559 108.465zM103.537 118.90591a47.8946 47.8946 0 011.646-7.165 47.36787 47.36787 0 012.6026-6.876 47.37532 47.37532 0 01-1.64606 7.16553A47.92192 47.92192 0 01103.537 118.90591z"></path><path fill="#dd7f7f" d="M68.87334 65.14333a1.5009 1.5009 0 000-3 1.5009 1.5009 0 000 3zM85.55334 63.76333a1.5009 1.5009 0 000-3 1.5009 1.5009 0 000 3z"></path><path fill="#fabb05" d="M68.01386 78.73719H55.63691l6.18848-17.36133zm-11.07324-.91992h9.76953L61.82539 64.11414zM99.01386 78.73719H86.63691l6.18848-17.36133zm-11.07324-.91992h9.76953L92.82539 64.11414z"></path><path fill="#200100" d="M69.86558,36.90393s2.053-6.85,10.333-5.05,5.35477,7.32,5.35477,7.32Z"></path><path fill="#b86a4b" d="M385.6368,324.40494l-.05883-10.98,7.09613-127.57569a75.72764,75.72764,0,0,0-6.30622-33.66162,52.703,52.703,0,0,0-8.19775-13.24267h-26.4l-7.27527,13.0249a86.25051,86.25051,0,0,0-9.96039,29.03125L315.99258,315.611l-1.50922,8.79395-14.85327,10.98s17.46,6.2998,26.28-3.06006l1.48779-16.71387,35.86218-144.26611h1.42664L373.87008,313.425l.34,18.8999c8.82,9.35986,26.28,3.06006,26.28,3.06006Z"></path><path fill="#200100" d="M319.3089,88.545c-.55652-2.63867-1.17614-5.57666,0-8.88.81122-2.27832,2.109-3.69787,7.68-9.12,6.42791-6.25623,5.84924-5.48487,6.48-6.24,3.72052-4.45423,3.32183-6.71021,8.64-16.67993,2.85712-5.35608,3.99921-6.63038,5.64-7.56006,3.89746-2.20838,8.3117-1.1709,9.72-.84,5.805,1.36426,5.714,4.6178,14.64,9,1.3689.67212,2.95928.91594,3.84,2.50609a40.12379,40.12379,0,0,1,4.07891,12.42129c.87811,9.87.35831,11.03759-.35891,15.43261-.92291,5.65539-1.87873,11.51257-6.12,17.28-9.12195,12.40441-25.0058,12.92224-27.24,12.96-3.62323.06115-9.70294.16357-15.84-3.72C322.02991,99.7648,319.80286,90.88711,319.3089,88.545Z"></path><path fill="#b86a4b" d="M372.34888,55.185c-.01862,0-.03577.00586-.05432.00611-.55249-9.59534-6.80975-17.16614-14.46564-17.16614s-13.91321,7.5708-14.4657,17.16614c-.01855-.00025-.0357-.00611-.05432-.00611a4.70742,4.70742,0,0,0,0,9.36,3.77566,3.77566,0,0,0,1.33008-.26233c1.70227,4.7345,4.91541,8.39587,8.85242,9.973l-.01459.00171.1521,11.88769.72,8.7,11.94-1.14-.42-7.55994-1.24335-13.19311-.03143.00366a17.521,17.521,0,0,0,6.42468-8.673,3.77544,3.77544,0,0,0,1.33008.26233,4.70742,4.70742,0,0,0,0-9.36Z"></path><path fill="#200100" d="M355.03445 74.76041c1.46081-.08252 2.82538-.07618 4.18268-.186.67681-.05127 1.34039-.14844 2.01025-.26074a19.4008 19.4008 0 002.02161-.5459 4.69962 4.69962 0 01-1.79163 1.2915 7.61219 7.61219 0 01-2.16022.51123 9.10618 9.10618 0 01-2.19171-.11523A6.63879 6.63879 0 01355.03445 74.76041zM356.74886 57.10513c-.01776.74414-.09021 1.45508-.15661 2.15723a20.01808 20.01808 0 00-.12238 2.0498c-.00732.66114.11371 1.27832.4671 1.42676a3.718 3.718 0 001.91193-.23388 3.67275 3.67275 0 01-.87366.7124 1.8435 1.8435 0 01-1.23285.27734 1.48567 1.48567 0 01-1.066-.96045 3.674 3.674 0 01-.20581-1.21 7.54234 7.54234 0 01.35956-2.21533A7.6688 7.6688 0 01356.74886 57.10513zM346.2867 53.634s3.0404-3.8315 7.18885-1.21858M359.5412 52.22458s3.60638-3.3043 7.29106-.07009M354.2311 67.13436s4.94917 5.73024 9.23558-1.578"></path><ellipse cx="351.289" cy="57.855" fill="#200100" rx="1.02" ry="1.53"></ellipse><ellipse cx="362.929" cy="57.435" fill="#200100" rx="1.02" ry="1.53"></ellipse><path fill="#200100" d="M340.42892 60.58511a2.03721 2.03721 0 01.29913-1.21093 2.13412 2.13412 0 01.99658-.89161 1.72135 1.72135 0 011.39478.01954 1.78917 1.78917 0 01.90948.88281c-.43463-.04541-.78253-.13086-1.10211-.12647a1.738 1.738 0 00-.822.14844A8.0888 8.0888 0 00340.42892 60.58511zM375.02889 60.58511a8.09053 8.09053 0 00-1.676-1.17822 1.73763 1.73763 0 00-.8219-.14844c-.31958-.00439-.66748.08106-1.10211.12647a1.789 1.789 0 01.90942-.88281 1.7215 1.7215 0 011.39484-.01954 2.13412 2.13412 0 01.99658.89161A2.03721 2.03721 0 01375.02889 60.58511z"></path><path fill="#200100" d="M344.28846,49.91107s4.78043-1.29684,5.98043-9.17146c0,0,.63991,9.63109,20.77995,8.19824l.38005,8.49715,4.52-6.70391S370.8802,33.10067,355.03447,35.265a15.40232,15.40232,0,0,0-6.9584,3.04632,22.4277,22.4277,0,0,0-8.7959,15.884l-.17128,1.70972s3.31544-5.58984,6,4.22369Z"></path><path fill="#dd7f7f" d="M350.10615 61.997l-.0249-.001-.44922-.0293a.37482.37482 0 01.04883-.748l.44922.0293a.37491.37491 0 01-.02393.749zM350.49385 64.57117l-.02491-.001-.44922-.0293a.37455.37455 0 01-.34961-.39844.36987.36987 0 01.39844-.34961l.44922.0293a.37491.37491 0 01-.02392.749zM348.42256 63.44617l-.02491-.001-.44873-.0293a.37455.37455 0 01-.34961-.39844.37.37 0 01.39844-.34961l.44873.0293a.37491.37491 0 01-.02392.749zM351.96552 63.077l-.0249-.001-.44922-.0293a.37482.37482 0 11.04883-.748l.44922.0293a.37491.37491 0 01-.02393.749zM364.8664 61.6952l-.0249-.001-.44873-.0293a.37454.37454 0 01-.34961-.39843.365.365 0 01.39844-.34961l.44873.02929a.37492.37492 0 01-.02393.749zM365.25459 64.26941l-.02491-.001-.44921-.0293a.37453.37453 0 01-.34961-.39844.35968.35968 0 01.39843-.34961l.44922.0293a.37491.37491 0 01-.02392.749zM363.1833 63.14441l-.0249-.001-.44922-.0293a.37454.37454 0 01-.34961-.39844.36117.36117 0 01.39844-.34961l.44921.0293a.37491.37491 0 01-.02392.749zM366.72578 62.77625l-.02588-.001-.44922-.03027a.37489.37489 0 01.05078-.748l.44922.03028a.37494.37494 0 01-.0249.749z"></path><path fill="#b86a4b" d="M300.33873,168.13862l19.51545-37.68769a8.21988,8.21988,0,0,1,6.16545-4.47168,5.32137,5.32137,0,0,1,5.39943,2.36888,7.8626,7.8626,0,0,1-.34043,9.03776l-26.16035,35.582Z"></path><path fill="#b86a4b" d="M300.34988 168.06715l-11.49863 10.6167a6.1631 6.1631 0 00-2.10779 4.45525l-.26866 8.79406a1.52624 1.52624 0 00.56127 1.22966h0a1.52622 1.52622 0 002.14728-.21882h0a3.592 3.592 0 00.80679-2.18984l.14776-6.6739s4.96739-5.23991 4.37808-4.32694l-.54216 4.0306a1.11047 1.11047 0 001.43938 1.20554h0a1.10118 1.10118 0 00.56216-.3963 5.87882 5.87882 0 001.00669-2.3695l.22124-1.20892s7.61511-5.4265 8.89052-9.6505zM431.82321 168.13862l-19.51544-37.68769a8.21991 8.21991 0 00-6.16546-4.47168 5.32137 5.32137 0 00-5.39943 2.36888 7.86262 7.86262 0 00.34043 9.03776l26.16035 35.582z"></path><path fill="#b86a4b" d="M431.81206,168.06715l11.49863,10.6167a6.1631,6.1631,0,0,1,2.10779,4.45525l.26866,8.79406a1.52624,1.52624,0,0,1-.56127,1.22966h0a1.52622,1.52622,0,0,1-2.14728-.21882h0a3.592,3.592,0,0,1-.80679-2.18984l-.14776-6.6739s-4.96738-5.23991-4.37808-4.32694l.54216,4.0306a1.11047,1.11047,0,0,1-1.43938,1.20554h0a1.10118,1.10118,0,0,1-.56216-.3963,5.87882,5.87882,0,0,1-1.00669-2.3695l-.22124-1.20892s-7.61511-5.4265-8.89052-9.6505Z"></path><path fill="#e06c96" d="M293.87009 341.505s19.62.36807 24.3-4.046v4.05348h8.64s2.7143-14.44976-1.88285-13.70864-20.96172 13.235-21.32943 4.64806l-6.41993 3.30449a6.09909 6.09909 0 00-3.30779 5.42287zM406.25009 341.505s-19.62.36807-24.3-4.046v4.05348h-8.64s-2.7143-14.44976 1.88285-13.70864 20.96172 13.235 21.32943 4.64806l6.41993 3.30449a6.09909 6.09909 0 013.30779 5.42287z"></path><path fill="#fa81a2" d="M399.53005,136.06488,414.8901,132.705,394.14889,98.20673a22.86288,22.86288,0,0,0-13.96656-10.41016A61.17394,61.17394,0,0,0,365.93008,86.145s-5.04,13.91992-12.24,0l-9.93463,3.34754a21.95619,21.95619,0,0,0-12.99036,11.74987l-16.28174,35.95606,16.24957,2.48132,12.29-20.30652L351.7701,138.945l-7.2752,13.0249a86.248,86.248,0,0,0-9.96039,29.031l-5.87132,38.37638,62.77159.37146,1.23932-33.89945a75.72868,75.72868,0,0,0-6.30622-33.66187,52.69589,52.69589,0,0,0-8.19781-13.24243l5.83142-20.03906Z"></path><path fill="#e06c96" d="M337.61007 108.465a33.12441 33.12441 0 013.15411 5.23193 32.7704 32.7704 0 012.25879 5.67627 32.75232 32.75232 0 01-3.154-5.23193A33.14949 33.14949 0 01337.61007 108.465zM384.00149 118.90591a47.90216 47.90216 0 011.64606-7.165 47.36868 47.36868 0 012.60253-6.876 47.36669 47.36669 0 01-1.646 7.16553A47.9151 47.9151 0 01384.00149 118.90591z"></path></g></g></svg>